<?xml version="1.0" encoding="utf-8"?>
<!-- Generator: Adobe Illustrator 17.0.0, SVG Export Plug-In . SVG Version: 6.00 Build 0)  -->
<!DOCTYPE svg PUBLIC "-//W3C//DTD SVG 1.1//EN" "http://www.w3.org/Graphics/SVG/1.1/DTD/svg11.dtd">
<svg version="1.1" id="Layer_1" xmlns="http://www.w3.org/2000/svg" xmlns:xlink="http://www.w3.org/1999/xlink" x="0px" y="0px"
	 width="512px" height="512px" viewBox="0 0 512 512" enable-background="new 0 0 512 512" xml:space="preserve">
<path fill="#444444" d="M364.857,320.572c0-4.952-1.809-9.238-5.428-12.857l-51.714-51.714l51.714-51.714
	c3.619-3.619,5.428-7.904,5.428-12.857c0-5.143-1.809-9.524-5.428-13.143l-25.714-25.714c-3.619-3.619-8-5.428-13.143-5.428
	c-4.952,0-9.238,1.809-12.857,5.428l-51.714,51.714l-51.714-51.714c-3.619-3.619-7.904-5.428-12.857-5.428
	c-5.143,0-9.524,1.809-13.143,5.428l-25.715,25.714c-3.619,3.619-5.428,8-5.428,13.143c0,4.953,1.809,9.238,5.428,12.857
	l51.715,51.714l-51.715,51.714c-3.619,3.619-5.428,7.904-5.428,12.857c0,5.143,1.809,9.524,5.428,13.143l25.715,25.714
	c3.619,3.619,8,5.428,13.143,5.428c4.953,0,9.238-1.809,12.857-5.428l51.714-51.714l51.714,51.714
	c3.619,3.619,7.904,5.428,12.857,5.428c5.143,0,9.524-1.809,13.143-5.428l25.714-25.714
	C363.048,330.096,364.857,325.715,364.857,320.572z M475.428,256c0,39.809-9.809,76.524-29.428,110.143
	c-19.619,33.619-46.238,60.238-79.857,79.857S295.809,475.428,256,475.428c-39.809,0-76.524-9.809-110.143-29.428
	S85.619,399.762,66,366.143S36.572,295.809,36.572,256c0-39.809,9.809-76.524,29.428-110.143S112.238,85.619,145.857,66
	S216.191,36.572,256,36.572S332.524,46.381,366.143,66s60.238,46.238,79.857,79.857C465.619,179.476,475.428,216.191,475.428,256z"
	/>
</svg>
