<?xml version="1.0" encoding="utf-8"?>
<!-- Generated by IcoMoon.io -->
<!DOCTYPE svg PUBLIC "-//W3C//DTD SVG 1.1//EN" "http://www.w3.org/Graphics/SVG/1.1/DTD/svg11.dtd">
<svg version="1.1" xmlns="http://www.w3.org/2000/svg" xmlns:xlink="http://www.w3.org/1999/xlink" width="512" height="512" viewBox="0 0 512 512">
<path d="M256 393.143v-54.857q0-4-2.571-6.572t-6.571-2.572h-54.857q-4 0-6.571 2.572t-2.571 6.572v54.857q0 4 2.571 6.572t6.572 2.572h54.857q4 0 6.571-2.572t2.572-6.572zM329.143 201.143q0-25.143-15.857-46.571t-39.572-33.143-48.572-11.715q-69.428 0-106 60.857-4.285 6.857 2.285 12l37.715 28.572q2 1.714 5.428 1.714 4.572 0 7.143-3.429 15.143-19.429 24.571-26.285 9.714-6.857 24.572-6.857 13.714 0 24.428 7.429t10.714 16.857q0 10.857-5.714 17.429t-19.428 12.857q-18 8-33 24.715t-15 35.857v10.286q0 4 2.571 6.572t6.571 2.572h54.857q4 0 6.571-2.572t2.572-6.572q0-5.428 6.143-14.143t15.572-14.143q9.143-5.143 14-8.143t13.143-10 12.714-13.714 8-17.286 3.572-23.143zM438.857 256q0 59.714-29.428 110.143t-79.857 79.857-110.143 29.428-110.143-29.428-79.857-79.857-29.428-110.143 29.428-110.143 79.857-79.857 110.143-29.428 110.143 29.428 79.857 79.857 29.428 110.143z" fill="#444444"></path>
</svg>
