<?xml version="1.0" encoding="utf-8"?>
<!-- Generator: Adobe Illustrator 17.0.0, SVG Export Plug-In . SVG Version: 6.00 Build 0)  -->
<!DOCTYPE svg PUBLIC "-//W3C//DTD SVG 1.1//EN" "http://www.w3.org/Graphics/SVG/1.1/DTD/svg11.dtd">
<svg version="1.1" id="Layer_1" xmlns="http://www.w3.org/2000/svg" xmlns:xlink="http://www.w3.org/1999/xlink" x="0px" y="0px"
	 width="512px" height="512px" viewBox="0 0 512 512" enable-background="new 0 0 512 512" xml:space="preserve">
<path fill="#444444" d="M475.428,384v36.572c0,4.952-1.809,9.238-5.428,12.857c-3.619,3.619-7.904,5.429-12.857,5.428H54.857
	c-4.952,0-9.238-1.809-12.857-5.428c-3.619-3.619-5.429-7.904-5.428-12.857V384c0-4.952,1.809-9.238,5.428-12.857
	s7.904-5.429,12.857-5.428h402.286c4.952,0,9.238,1.809,12.857,5.428S475.429,379.047,475.428,384z M475.428,237.714v36.572
	c0,4.952-1.809,9.238-5.428,12.857c-3.619,3.619-7.904,5.429-12.857,5.428H54.857c-4.952,0-9.238-1.809-12.857-5.428
	s-5.429-7.904-5.428-12.857v-36.572c0-4.952,1.809-9.238,5.428-12.857s7.904-5.429,12.857-5.429h402.286
	c4.952,0,9.238,1.809,12.857,5.428S475.429,232.76,475.428,237.714L475.428,237.714z M475.428,91.427v36.572
	c0,4.952-1.809,9.238-5.428,12.857c-3.619,3.619-7.904,5.429-12.857,5.429H54.857c-4.952,0-9.238-1.809-12.857-5.428
	s-5.429-7.904-5.428-12.857V91.429c0-4.952,1.809-9.238,5.428-12.857s7.904-5.429,12.857-5.428h402.286
	c4.952,0,9.238,1.809,12.857,5.428s5.429,7.904,5.428,12.857V91.427z"/>
</svg>
