<?xml version="1.0" encoding="utf-8"?>
<!-- Generator: Adobe Illustrator 17.0.0, SVG Export Plug-In . SVG Version: 6.00 Build 0)  -->
<!DOCTYPE svg PUBLIC "-//W3C//DTD SVG 1.1//EN" "http://www.w3.org/Graphics/SVG/1.1/DTD/svg11.dtd">
<svg version="1.1" id="Layer_1" xmlns="http://www.w3.org/2000/svg" xmlns:xlink="http://www.w3.org/1999/xlink" x="0px" y="0px"
	 width="403px" height="512px" viewBox="0 0 403 512" enable-background="new 0 0 403 512" xml:space="preserve">
<path fill="#444444" d="M402.286,401.428c0,22.857-6.952,40.905-20.857,54.143c-13.905,13.238-32.381,19.857-55.428,19.857H76.287
	c-23.048,0-41.524-6.619-55.428-19.857C6.955,442.333,0.003,424.285,0.002,401.428c0-10.095,0.333-19.953,1-29.572s2-20,4-31.143
	c2-11.143,4.524-21.476,7.572-31s7.143-18.81,12.285-27.857s11.047-16.762,17.715-23.143c6.668-6.381,14.811-11.477,24.428-15.286
	c9.617-3.809,20.236-5.714,31.857-5.714c1.715,0,5.715,2.048,12,6.143c6.285,4.095,13.38,8.667,21.285,13.715
	c7.905,5.048,18.19,9.619,30.857,13.714c12.667,4.095,25.381,6.142,38.143,6.143c12.762,0.001,25.476-2.047,38.143-6.143
	s22.952-8.667,30.857-13.714c7.905-5.047,15-9.618,21.286-13.714c6.286-4.096,10.286-6.144,12-6.143
	c11.619,0,22.238,1.905,31.857,5.714s17.762,8.904,24.428,15.285c6.666,6.381,12.571,14.095,17.714,23.143
	c5.143,9.048,9.239,18.334,12.286,27.857c3.047,9.523,5.571,19.857,7.572,31c2.001,11.143,3.334,21.524,4,31.143
	c0.666,9.619,0.999,19.476,1,29.572H402.286z M310.857,146.286c0,30.285-10.714,56.143-32.143,77.572s-47.286,32.144-77.572,32.143
	s-56.143-10.715-77.572-32.143s-32.143-47.285-32.143-77.571s10.714-56.143,32.143-77.572s47.286-32.143,77.572-32.143
	c30.286,0,56.143,10.714,77.572,32.143s32.143,47.286,32.143,77.572V146.286z"/>
</svg>
