<?xml version="1.0" encoding="utf-8"?>
<!-- Generator: Adobe Illustrator 16.0.0, SVG Export Plug-In . SVG Version: 6.00 Build 0)  -->
<!DOCTYPE svg PUBLIC "-//W3C//DTD SVG 1.1//EN" "http://www.w3.org/Graphics/SVG/1.1/DTD/svg11.dtd">
<svg version="1.1" id="Layer_1" xmlns="http://www.w3.org/2000/svg" xmlns:xlink="http://www.w3.org/1999/xlink" x="0px" y="0px"
	 width="21.928px" height="21.928px" viewBox="0 0 21.928 21.928" enable-background="new 0 0 21.928 21.928" xml:space="preserve">
<path fill="#FFFFFF" d="M10.964,0C9.448,0,7.976,0.307,6.59,0.912L6.138,1.109l0.865,2.049l0.464-0.203
	c1.108-0.486,2.285-0.732,3.497-0.732c4.82,0,8.741,3.921,8.741,8.74c0,4.82-3.921,8.741-8.741,8.741s-8.741-3.921-8.741-8.741
	c0-0.716,0.09-1.435,0.269-2.138L2.615,8.34L0.459,7.795L0.336,8.279C0.113,9.16,0,10.063,0,10.963
	c0,6.046,4.918,10.965,10.964,10.965s10.964-4.919,10.964-10.965C21.928,4.918,17.009,0,10.964,0z"/>
</svg>
